<svg width="40" height="40" viewBox="0 0 40 40" fill="none" xmlns="http://www.w3.org/2000/svg">
<path fill-rule="evenodd" clip-rule="evenodd" d="M27.135 12.8648C27.2514 12.9809 27.3438 13.1188 27.4068 13.2707C27.4698 13.4226 27.5022 13.5854 27.5022 13.7498C27.5022 13.9142 27.4698 14.077 27.4068 14.2289C27.3438 14.3807 27.2514 14.5187 27.135 14.6348L19.635 22.1348C19.5189 22.2512 19.3809 22.3436 19.2291 22.4066C19.0772 22.4696 18.9144 22.502 18.75 22.502C18.5856 22.502 18.4228 22.4696 18.2709 22.4066C18.119 22.3436 17.9811 22.2512 17.865 22.1348L14.115 18.3848C13.9988 18.2686 13.9066 18.1306 13.8437 17.9788C13.7808 17.8269 13.7484 17.6642 13.7484 17.4998C13.7484 17.3354 13.7808 17.1727 13.8437 17.0208C13.9066 16.869 13.9988 16.731 14.115 16.6148C14.2312 16.4986 14.3692 16.4064 14.521 16.3435C14.6729 16.2806 14.8356 16.2482 15 16.2482C15.1644 16.2482 15.3271 16.2806 15.479 16.3435C15.6308 16.4064 15.7688 16.4986 15.885 16.6148L18.75 19.4823L25.365 12.8648C25.4811 12.7484 25.619 12.656 25.7709 12.593C25.9228 12.53 26.0856 12.4976 26.25 12.4976C26.4144 12.4976 26.5772 12.53 26.7291 12.593C26.8809 12.656 27.0189 12.7484 27.135 12.8648V12.8648Z" fill="black"/>
<path d="M5 5C5 3.67392 5.52678 2.40215 6.46447 1.46447C7.40215 0.526784 8.67392 0 10 0L30 0C31.3261 0 32.5979 0.526784 33.5355 1.46447C34.4732 2.40215 35 3.67392 35 5V38.75C34.9999 38.9761 34.9384 39.1979 34.8222 39.3919C34.706 39.5858 34.5393 39.7446 34.34 39.8513C34.1407 39.9581 33.9161 40.0087 33.6903 39.9979C33.4644 39.9871 33.2457 39.9153 33.0575 39.79L20 32.7525L6.9425 39.79C6.75426 39.9153 6.53558 39.9871 6.30973 39.9979C6.08388 40.0087 5.85933 39.9581 5.66 39.8513C5.46066 39.7446 5.29401 39.5858 5.17779 39.3919C5.06156 39.1979 5.00012 38.9761 5 38.75V5ZM10 2.5C9.33696 2.5 8.70107 2.76339 8.23223 3.23223C7.76339 3.70107 7.5 4.33696 7.5 5V36.415L19.3075 30.21C19.5127 30.0735 19.7536 30.0006 20 30.0006C20.2464 30.0006 20.4873 30.0735 20.6925 30.21L32.5 36.415V5C32.5 4.33696 32.2366 3.70107 31.7678 3.23223C31.2989 2.76339 30.663 2.5 30 2.5H10Z" fill="black"/>
</svg>
