<svg width="35" height="35" viewBox="0 0 35 35" fill="none" xmlns="http://www.w3.org/2000/svg">
<path d="M19.9719 32.8125L18.8125 31.1281C19.4447 30.301 19.7338 29.262 19.6197 28.2273C19.5057 27.1925 18.9972 26.2414 18.2 25.5719C16.86 24.452 15.9418 22.9088 15.5969 21.1969C12.1844 26.075 13.9563 28.7656 15.5969 31.15L14.3938 32.8125C12.1091 32.382 10.0575 31.1392 8.61801 29.3137C7.17849 27.4881 6.44835 25.2033 6.56252 22.8813C6.56252 22.8813 6.10315 18.1562 11.55 13.5406C11.55 13.5406 17.7188 7.83125 15.575 3.60937L17.1281 2.1875C19.4976 3.84896 21.3103 6.18705 22.329 8.89576C23.3477 11.6045 23.525 14.5576 22.8375 17.3688C23.3563 16.8626 23.7722 16.2609 24.0625 15.5969L25.9657 15.4437C26.1188 15.7062 29.9907 21.8531 27.9125 27.0375C27.1723 28.5836 26.0589 29.9211 24.6726 30.9293C23.2863 31.9375 21.6708 32.5847 19.9719 32.8125V32.8125ZM15.5969 17.6094L17.5 18.4625C17.3986 19.4604 17.5272 20.4683 17.8761 21.4088C18.225 22.3492 18.7848 23.1972 19.5125 23.8875C20.4502 24.5706 21.1603 25.5203 21.5505 26.6128C21.9407 27.7053 21.9928 28.89 21.7 30.0125C22.6042 29.6957 23.4347 29.199 24.1415 28.5524C24.8484 27.9057 25.4168 27.1225 25.8125 26.25C26.5552 23.587 26.2336 20.7396 24.9157 18.3094C24.5014 18.9814 23.8996 19.5175 23.1844 19.8517C22.4692 20.186 21.6719 20.3038 20.8906 20.1906L20.125 18.7031C21.0832 16.631 21.4096 14.3225 21.0633 12.066C20.7171 9.80952 19.7135 7.70508 18.1782 6.01562C17.8719 10.6531 13.125 14.9406 12.9719 15.1813C8.44377 19.0313 8.75002 22.5969 8.75002 22.75C8.6646 24.101 8.94204 25.4503 9.5536 26.6581C10.1652 27.8658 11.0886 28.888 12.2281 29.6187C10.9375 26.5562 10.9375 22.8813 15.6625 17.6094H15.5969V17.6094Z" fill="black"/>
</svg>
