<svg width="35" height="35" viewBox="0 0 35 35" fill="none" xmlns="http://www.w3.org/2000/svg">
<path d="M9.84375 7.65625C6.23438 7.65625 3.28125 10.6094 3.28125 14.2188C3.28125 16.3887 4.34984 18.3203 5.98172 19.5169C3.0975 20.9475 1.09375 23.9138 1.09375 27.3438H3.28125C3.28125 23.7081 6.20813 20.7812 9.84375 20.7812C13.4794 20.7812 16.4062 23.7081 16.4062 27.3438H18.5938C18.5938 23.7081 21.5206 20.7812 25.1562 20.7812C28.7919 20.7812 31.7188 23.7081 31.7188 27.3438H33.9062C33.9062 23.9127 31.9025 20.9475 29.0183 19.5169C29.8534 18.9084 30.5331 18.1115 31.0024 17.1909C31.4716 16.2703 31.717 15.252 31.7188 14.2188C31.7188 10.6094 28.7656 7.65625 25.1562 7.65625C21.5469 7.65625 18.5938 10.6094 18.5938 14.2188C18.5938 16.3887 19.6623 18.3203 21.2942 19.5169C19.6962 20.3026 18.3734 21.5536 17.5 23.1055C16.6266 21.5536 15.3038 20.3026 13.7058 19.5169C14.5409 18.9084 15.2206 18.1115 15.6899 17.1909C16.1591 16.2703 16.4045 15.252 16.4062 14.2188C16.4063 10.6094 13.4531 7.65625 9.84375 7.65625ZM9.84375 9.84375C12.2752 9.84375 14.2188 11.7873 14.2188 14.2188C14.2188 16.6502 12.2752 18.5938 9.84375 18.5938C7.41234 18.5938 5.46875 16.6502 5.46875 14.2188C5.46875 11.7873 7.41234 9.84375 9.84375 9.84375ZM25.1562 9.84375C27.5877 9.84375 29.5312 11.7873 29.5312 14.2188C29.5312 16.6502 27.5877 18.5938 25.1562 18.5938C22.7248 18.5938 20.7812 16.6502 20.7812 14.2188C20.7812 11.7873 22.7248 9.84375 25.1562 9.84375Z" fill="black"/>
</svg>
