<svg width="24" height="24" viewBox="0 0 24 24" fill="none" xmlns="http://www.w3.org/2000/svg">
<path d="M14.9613 2.45257L14.9629 2.45413L20.6344 8.10067C20.635 8.10123 20.6356 8.10179 20.6361 8.10235C22.5725 10.0509 22.5692 13.193 20.6363 15.1259L15.1507 20.6115C15.1505 20.6117 15.1503 20.6119 15.15 20.6121C13.2015 22.5495 10.0588 22.5466 8.12555 20.6134L2.46305 14.9509C1.47459 13.9624 0.942837 12.5984 1.00488 11.1916C1.00491 11.191 1.00493 11.1904 1.00496 11.1899L1.30468 4.94565C1.3047 4.94528 1.30472 4.94492 1.30474 4.94456C1.40446 2.97109 2.98001 1.3962 4.9634 1.30695L4.9634 1.30695L4.96639 1.30681L11.2164 1.00682L11.2206 1.0066C12.6088 0.934078 13.9715 1.46272 14.9613 2.45257Z" stroke="black" stroke-width="2"/>
<path d="M8.41738 12.0125C10.4056 12.0125 12.0174 10.4007 12.0174 8.4125C12.0174 6.42428 10.4056 4.8125 8.41738 4.8125C6.42916 4.8125 4.81738 6.42428 4.81738 8.4125C4.81738 10.4007 6.42916 12.0125 8.41738 12.0125Z" fill="black"/>
<path d="M11.9344 17.8719C11.6969 17.8719 11.4594 17.7844 11.2719 17.5969C10.9094 17.2344 10.9094 16.6344 11.2719 16.2719L16.2719 11.2719C16.6344 10.9094 17.2344 10.9094 17.5969 11.2719C17.9594 11.6344 17.9594 12.2344 17.5969 12.5969L12.5969 17.5969C12.4094 17.7844 12.1719 17.8719 11.9344 17.8719Z" fill="black"/>
</svg>
