<svg width="18" height="23" viewBox="0 0 18 23" fill="none" xmlns="http://www.w3.org/2000/svg">
<path d="M14.7655 21.6713L14.7649 21.671L9.8869 18.6234C9.53376 18.3984 9.09791 18.3016 8.68875 18.3016C8.27836 18.3016 7.84121 18.3989 7.48477 18.6224C7.4846 18.6225 7.48444 18.6226 7.48427 18.6227L2.6067 21.6699C2.60652 21.6701 2.60635 21.6702 2.60618 21.6703C1.91736 22.0968 1.4204 22.0539 1.11866 21.854C0.794615 21.6393 0.5 21.1195 0.5 20.1938V4.3425C0.5 2.17665 2.06988 0.5 3.86 0.5H13.5C15.299 0.5 16.8605 2.1755 16.87 4.34371V20.1938C16.87 21.1264 16.5747 21.6482 16.2513 21.8624C15.9513 22.0612 15.4553 22.1036 14.7655 21.6713Z" fill="white" stroke="black"/>
</svg>
